<?xml version="1.0" standalone="no"?>
<!DOCTYPE svg PUBLIC "-//W3C//DTD SVG 20010904//EN"
 "http://www.w3.org/TR/2001/REC-SVG-20010904/DTD/svg10.dtd">
<svg version="1.0" xmlns="http://www.w3.org/2000/svg"
 width="1020.000000pt" height="1020.000000pt" viewBox="0 0 1020.000000 1020.000000"
 preserveAspectRatio="xMidYMid meet">
<metadata>
Created by potrace 1.14, written by Peter Selinger 2001-2017
</metadata>
<g transform="translate(0.000000,1020.000000) scale(0.100000,-0.100000)"
fill="#000000" stroke="none">
<path d="M3727 8893 c-1 0 -49 -4 -107 -7 -58 -4 -125 -9 -150 -11 -25 -3 -68
-7 -97 -9 -28 -3 -62 -8 -75 -10 -13 -3 -42 -8 -65 -11 -106 -13 -129 -17
-143 -21 -8 -3 -31 -8 -50 -10 -19 -3 -44 -7 -55 -11 -11 -4 -27 -7 -35 -8
-12 -1 -60 -12 -90 -20 -3 -1 -23 -5 -45 -10 -22 -5 -42 -10 -45 -10 -26 -6
-118 -33 -224 -66 -207 -65 -402 -143 -596 -239 -83 -41 -142 -73 -210 -114
-25 -15 -53 -29 -62 -33 -10 -3 -18 -9 -18 -14 0 -5 -5 -9 -11 -9 -7 0 -52
-27 -101 -60 -49 -33 -93 -60 -98 -60 -6 0 -10 -3 -10 -7 0 -5 -17 -19 -38
-33 -20 -14 -39 -27 -42 -30 -3 -3 -30 -24 -60 -47 -30 -23 -67 -53 -82 -65
-14 -13 -46 -39 -70 -58 -74 -60 -300 -290 -382 -390 -101 -124 -92 -112 -162
-210 -97 -137 -154 -233 -235 -400 -33 -69 -64 -132 -68 -140 -5 -8 -3 -23 3
-33 9 -15 7 -21 -8 -32 -10 -8 -22 -13 -25 -10 -4 2 -17 -27 -30 -63 -12 -37
-25 -74 -28 -82 -4 -8 -7 -18 -8 -22 -2 -5 -3 -9 -5 -10 -1 -2 -3 -10 -5 -18
-2 -8 -11 -42 -20 -75 -26 -96 -33 -124 -41 -175 -3 -19 -8 -38 -11 -43 -2 -4
-6 -24 -8 -45 -3 -20 -6 -50 -9 -67 -2 -16 -7 -54 -11 -84 -13 -105 -22 -327
-13 -336 3 -3 2 -23 -2 -45 -4 -22 -5 -42 -2 -44 2 -3 6 -31 8 -63 10 -211 77
-538 139 -686 8 -20 15 -38 14 -39 -1 -5 31 -90 69 -178 18 -45 113 -234 139
-280 29 -49 123 -201 134 -214 5 -6 37 -49 71 -96 34 -47 67 -90 73 -96 5 -7
24 -29 42 -50 103 -127 297 -321 423 -423 23 -19 48 -40 54 -46 36 -35 357
-261 396 -279 8 -4 31 -17 52 -29 162 -98 373 -201 578 -282 157 -62 172 -71
147 -81 -9 -3 -17 -11 -17 -16 0 -6 -11 -24 -25 -42 -28 -35 -28 -34 -72 -98
-18 -25 -33 -51 -33 -57 0 -6 -4 -11 -8 -11 -14 0 -98 -189 -117 -262 -13 -50
-23 -68 -39 -73 -11 -4 -23 -8 -26 -9 -40 -17 -291 -69 -297 -62 -8 7 -133
-43 -151 -61 -26 -24 -39 -53 -38 -83 1 -20 6 -25 26 -24 24 2 143 10 259 19
51 4 77 7 166 21 22 3 50 7 63 9 29 4 72 32 72 47 0 11 80 178 90 188 3 3 30
55 61 115 98 193 134 260 142 263 4 2 7 9 7 15 0 7 14 33 30 59 l29 46 83 -25
c77 -23 136 -38 248 -65 98 -22 126 -28 155 -33 17 -2 41 -7 55 -10 72 -15 76
-16 175 -29 257 -34 347 -39 635 -39 140 0 291 2 335 6 124 10 198 18 209 23
6 3 0 -3 -14 -13 -46 -34 -57 -50 -64 -98 -4 -26 -10 -57 -12 -68 -5 -23 -8
-46 -20 -137 -8 -62 -8 -54 0 -135 10 -97 17 -137 31 -178 16 -47 13 -58 -23
-80 -15 -9 -43 -30 -62 -46 -19 -17 -39 -31 -43 -31 -4 0 -13 -5 -20 -10 -34
-28 -104 -77 -120 -83 -21 -8 -37 -42 -52 -112 -5 -24 -2 -35 15 -50 61 -55
236 18 371 156 l57 58 -4 98 c-2 54 -6 118 -9 143 -2 25 -7 128 -10 230 -5
184 -5 186 17 207 57 52 298 198 341 207 35 8 230 55 252 62 11 3 30 7 42 9
12 2 27 6 32 10 6 3 21 8 32 10 25 5 174 53 204 66 11 4 70 27 130 50 61 23
143 57 183 75 41 19 78 34 83 34 5 0 9 5 9 12 0 6 2 9 5 6 7 -7 238 111 315
161 l25 16 -23 -36 c-14 -23 -20 -44 -15 -55 7 -19 81 -135 93 -144 3 -3 28
-36 55 -75 45 -66 605 -637 605 -618 0 4 4 3 8 -2 13 -18 220 -155 234 -155 8
0 9 3 3 8 -6 4 -35 36 -65 72 -30 35 -62 72 -70 81 -8 9 -41 46 -72 80 -31 35
-66 75 -78 89 -41 49 -115 133 -145 165 -16 17 -46 52 -66 76 -21 24 -50 59
-67 77 -16 18 -47 54 -68 79 -22 26 -44 51 -49 57 -6 6 -28 33 -50 61 -22 27
-49 60 -60 73 -12 12 -28 35 -38 51 -16 27 -15 30 6 71 l22 44 120 2 c66 1
149 6 185 9 62 7 90 10 178 19 20 2 57 7 82 11 51 8 65 10 135 20 28 3 66 10
85 15 19 5 55 12 80 15 25 3 52 8 60 10 8 2 30 7 49 10 19 3 37 7 40 9 3 2 22
7 43 10 44 7 118 31 178 59 64 30 194 107 198 118 2 5 8 9 14 9 6 0 23 10 38
23 67 53 71 55 103 48 39 -9 72 -6 128 10 75 21 71 25 65 -53 -7 -81 -15 -165
-22 -228 -3 -25 -7 -65 -9 -90 -3 -25 -7 -61 -11 -80 -3 -19 -7 -48 -9 -65 -8
-61 -14 -101 -25 -155 -6 -30 -14 -68 -16 -85 -8 -50 -34 -107 -65 -144 -42
-51 -45 -55 -58 -80 -19 -35 -23 -159 -6 -216 17 -60 43 -85 89 -85 51 0 100
60 116 143 11 56 22 145 24 205 1 12 3 22 6 22 3 0 5 24 6 53 0 28 4 93 8 142
17 222 33 533 35 698 1 55 4 69 19 74 24 9 114 73 132 94 8 9 36 20 63 23 44
7 47 6 48 -16 0 -13 2 -30 4 -38 2 -8 7 -31 10 -50 3 -19 8 -46 11 -60 18 -81
21 -167 10 -235 -19 -107 -19 -139 3 -167 27 -33 62 -32 144 7 77 37 96 65 93
137 -2 44 -10 68 -36 108 -18 28 -38 57 -44 63 -67 71 -113 153 -130 231 -13
62 -12 63 14 95 l27 32 17 -25 c9 -14 16 -29 16 -34 0 -11 43 -52 55 -52 11 0
-1 85 -21 147 -15 46 -15 56 -3 80 13 26 69 123 76 132 4 6 14 -5 17 -21 2 -7
6 -20 9 -28 3 -8 13 -39 22 -67 17 -53 44 -72 46 -33 1 11 2 26 3 33 1 6 -2
32 -7 57 -5 25 -9 50 -11 57 -1 7 -5 15 -8 19 -4 3 -4 13 -1 21 4 11 21 -1 61
-44 72 -76 98 -117 114 -178 7 -31 23 -60 41 -77 24 -22 33 -25 59 -17 57 16
88 57 92 120 2 32 -3 44 -30 72 -18 18 -50 38 -71 45 -104 36 -166 69 -216
118 -44 43 -47 49 -47 97 0 54 -32 183 -50 201 -14 14 -13 71 3 84 6 5 26 13
42 16 17 3 47 9 68 15 20 5 37 7 37 5 0 -3 8 0 18 5 11 6 30 12 43 14 13 3 42
10 64 16 22 6 51 12 65 15 14 2 25 5 25 6 0 1 7 3 16 5 9 1 43 11 75 20 33 9
67 19 76 20 31 6 232 77 261 91 15 8 27 11 27 7 0 -5 4 -3 8 2 4 6 20 17 37
25 41 20 83 59 91 82 8 25 -39 66 -86 74 -19 4 -44 8 -54 10 -11 2 -25 -1 -33
-7 -7 -7 -13 -8 -13 -4 0 4 -26 -8 -57 -25 -53 -30 -109 -79 -130 -112 -19
-32 -157 -96 -241 -113 -10 -1 -34 -10 -54 -18 -20 -9 -38 -13 -41 -11 -2 2
-24 -3 -48 -12 -48 -17 -47 -17 -134 -38 -33 -8 -61 -14 -61 -13 -1 1 -4 25
-7 54 -5 47 -25 121 -37 133 -3 3 -11 17 -19 32 -8 15 -22 36 -31 46 -14 15
-19 45 -23 143 -4 68 -9 140 -12 159 -3 19 -8 44 -9 55 -10 54 -17 86 -26 109
-5 15 -8 26 -5 26 5 0 -30 98 -38 107 -4 3 -7 13 -7 21 0 23 -106 235 -162
325 -113 178 -261 355 -417 497 -57 52 -115 105 -128 117 -12 12 -23 19 -23
15 0 -4 -4 -2 -8 3 -12 16 -90 75 -100 75 -5 0 -17 28 -28 63 -10 34 -24 73
-31 87 -7 14 -13 31 -13 39 0 7 -9 29 -21 47 -11 19 -18 34 -15 34 17 0 -223
430 -245 438 -5 2 -9 8 -9 13 0 20 -176 249 -275 358 -77 85 -243 249 -319
316 -138 121 -440 345 -466 345 -4 0 -10 4 -12 8 -4 9 -146 92 -158 92 -5 0
-10 4 -12 9 -8 22 -537 263 -603 275 -5 1 -14 4 -20 7 -5 4 -57 21 -115 38
-58 18 -112 35 -120 38 -8 3 -19 7 -25 8 -5 2 -30 8 -55 15 -25 7 -52 14 -60
16 -8 2 -44 11 -80 19 -36 9 -74 18 -85 20 -11 2 -31 6 -45 9 -44 10 -67 14
-117 22 -26 3 -57 9 -68 11 -21 4 -133 20 -200 28 -143 17 -308 26 -508 28
-98 1 -179 1 -180 0z"/>
</g>
</svg>
